<?xml version="1.0" encoding="utf-8"?>
<!-- Generator: Adobe Illustrator 26.4.1, SVG Export Plug-In . SVG Version: 6.00 Build 0)  -->
<svg version="1.1" id="Layer_1" xmlns="http://www.w3.org/2000/svg" xmlns:xlink="http://www.w3.org/1999/xlink" x="0px" y="0px"
	 viewBox="0 0 242.6 31.3" style="enable-background:new 0 0 242.6 31.3;" xml:space="preserve">
<style type="text/css">
	.st0{fill:#211D1D;}
</style>
<g>
	<g>
		<path class="st0" d="M15.9,8.4L21.3,23H18l-1.1-3.3h-5.4l-1.1,3.2H7.1l5.5-14.5H15.9z M16.1,17.4L14.3,12h-0.1l-1.9,5.3H16.1z"/>
		<path class="st0" d="M28.9,8.4c0.9,0,1.8,0.2,2.6,0.5c0.8,0.3,1.5,0.8,2.1,1.4c0.6,0.6,1.1,1.4,1.4,2.3c0.3,0.9,0.5,2,0.5,3.2
			c0,1.1-0.2,2-0.4,2.9c-0.3,0.9-0.7,1.7-1.2,2.3s-1.2,1.2-2,1.5c-0.8,0.4-1.8,0.5-2.9,0.5h-6.3V8.4H28.9z M28.7,20.3
			c0.5,0,0.9-0.1,1.4-0.2c0.5-0.2,0.8-0.4,1.1-0.8c0.3-0.4,0.6-0.8,0.8-1.4c0.2-0.5,0.3-1.2,0.3-2c0-0.8-0.1-1.4-0.2-2
			c-0.2-0.6-0.4-1.1-0.7-1.5c-0.3-0.5-0.8-0.8-1.3-1c-0.5-0.2-1.2-0.3-2-0.3h-2.3v9.2L28.7,20.3L28.7,20.3z"/>
		<path class="st0" d="M42.3,8.4l3.4,10h0.1l3.2-10h4.5V23h-3V12.6h-0.1l-3.5,10.3h-2.5l-3.5-10.2h-0.1v10.2h-3V8.4H42.3z"/>
		<path class="st0" d="M59.5,8.4V23h-3.2V8.4H59.5z"/>
		<path class="st0" d="M65.5,8.4l6.1,9.8h0.1V8.4h3V23h-3.2l-6.1-9.8h-0.1V23h-3V8.4H65.5z"/>
	</g>
</g>
<path class="st0" d="M87.3,2.1v27.1h-2.9V2.1H87.3z"/>
<g>
	<path class="st0" d="M103.4,6.6c0.9,0,1.6,0.1,2.2,0.4c0.6,0.3,1.1,0.7,1.5,1.2c0.4,0.5,0.6,1,0.8,1.6c0.2,0.6,0.2,1.2,0.2,1.9
		c0,0.9-0.1,1.7-0.4,2.3c-0.3,0.7-0.6,1.2-1.1,1.6s-1,0.7-1.7,0.9c-0.7,0.2-1.4,0.3-2.2,0.3h-1.9v6.9h-3.5V6.6H103.4z M102.4,14.3
		c0.7,0,1.2-0.2,1.7-0.6c0.4-0.4,0.6-1.1,0.6-2c0-0.9-0.2-1.5-0.6-2c-0.4-0.4-1-0.7-1.9-0.7h-1.4v5.2H102.4z"/>
	<path class="st0" d="M109.3,14.5c0-0.8,0.1-1.4,0.4-1.9c0.2-0.5,0.6-0.9,1-1.2c0.4-0.3,0.9-0.5,1.4-0.7c0.6-0.1,1.1-0.2,1.8-0.2
		c1,0,1.8,0.1,2.4,0.3s1.1,0.5,1.4,0.8s0.6,0.8,0.7,1.3s0.2,1,0.2,1.6v6.8c0,0.6,0,1.1,0.1,1.4s0.2,0.7,0.3,1.1h-3.2
		c-0.1-0.2-0.2-0.4-0.3-0.7c-0.1-0.2-0.1-0.5-0.2-0.7h0c-0.4,0.7-0.8,1.1-1.3,1.3s-1.2,0.3-2,0.3c-0.6,0-1.1-0.1-1.5-0.3
		s-0.7-0.5-1-0.8c-0.2-0.4-0.4-0.8-0.5-1.2c-0.1-0.4-0.2-0.9-0.2-1.3c0-0.6,0.1-1.1,0.2-1.6s0.3-0.8,0.6-1.1c0.3-0.3,0.6-0.6,1-0.8
		c0.4-0.2,0.9-0.4,1.5-0.6l1.9-0.5c0.5-0.1,0.8-0.3,1-0.5c0.2-0.2,0.3-0.6,0.3-1c0-0.5-0.1-0.9-0.3-1.2c-0.2-0.3-0.6-0.4-1.2-0.4
		c-0.5,0-0.9,0.2-1.2,0.5c-0.3,0.3-0.4,0.7-0.4,1.2v0.4h-3V14.5z M114.7,17.7c-0.3,0.1-0.5,0.2-0.7,0.2c-0.7,0.1-1.2,0.4-1.4,0.7
		c-0.3,0.3-0.4,0.8-0.4,1.4c0,0.5,0.1,0.9,0.3,1.3c0.2,0.4,0.5,0.5,1,0.5c0.2,0,0.5,0,0.7-0.1c0.2-0.1,0.5-0.2,0.7-0.3
		c0.2-0.2,0.4-0.4,0.5-0.6c0.1-0.3,0.2-0.6,0.2-0.9v-2.6C115.2,17.4,114.9,17.6,114.7,17.7z"/>
	<path class="st0" d="M124.1,10.8v1.7h0c0.3-0.6,0.7-1.1,1.2-1.5c0.5-0.4,1.1-0.6,1.8-0.6c0.1,0,0.2,0,0.3,0c0.1,0,0.2,0,0.3,0v3.2
		c-0.2,0-0.3,0-0.5,0c-0.2,0-0.3,0-0.5,0c-0.3,0-0.6,0-0.9,0.1s-0.6,0.2-0.8,0.4c-0.2,0.2-0.4,0.4-0.6,0.7s-0.2,0.7-0.2,1.1v7.8
		h-3.3v-13H124.1z"/>
	<path class="st0" d="M135.4,22.5c-0.4,0.5-0.8,0.9-1.2,1.1c-0.4,0.2-1,0.3-1.6,0.3c-1.4,0-2.4-0.5-3-1.6c-0.6-1-1-2.8-1-5.2
		s0.3-4.1,1-5.2c0.6-1.1,1.6-1.6,3-1.6c0.7,0,1.2,0.1,1.7,0.4s0.9,0.7,1.2,1.3h0v-1.4h3.2v17.1h-3.3L135.4,22.5L135.4,22.5z
		 M135.1,14.1c-0.2-0.7-0.7-1.1-1.4-1.1c-0.7,0-1.2,0.4-1.4,1.1s-0.3,1.8-0.3,3.2c0,1.4,0.1,2.5,0.3,3.2s0.7,1.1,1.4,1.1
		c0.7,0,1.2-0.4,1.4-1.1s0.3-1.8,0.3-3.2C135.5,15.9,135.3,14.8,135.1,14.1z"/>
	<path class="st0" d="M147.6,22.2c-0.4,0.6-0.8,1.1-1.4,1.4c-0.6,0.3-1.2,0.4-1.9,0.4c-1.1,0-1.9-0.3-2.4-0.8
		c-0.6-0.6-0.9-1.5-0.9-2.8v-9.6h3.3v8.9c0,0.7,0.1,1.1,0.3,1.4c0.2,0.3,0.6,0.4,1.1,0.4c1.2,0,1.8-0.7,1.8-2.1v-8.6h3.3v13h-3.2
		L147.6,22.2L147.6,22.2z"/>
	<path class="st0" d="M155.9,18.8c0,0.4,0,0.8,0.1,1.1c0.1,0.4,0.1,0.7,0.3,1c0.1,0.3,0.3,0.5,0.5,0.7c0.2,0.2,0.5,0.3,0.8,0.3
		c0.6,0,1-0.2,1.2-0.6s0.4-1,0.5-1.8h3c-0.1,1.5-0.5,2.7-1.2,3.4c-0.7,0.8-1.9,1.2-3.5,1.2c-1.2,0-2.1-0.2-2.8-0.6s-1.2-0.9-1.5-1.6
		c-0.3-0.7-0.5-1.4-0.6-2.2s-0.1-1.6-0.1-2.5c0-0.9,0.1-1.7,0.2-2.5c0.1-0.8,0.4-1.5,0.7-2.1s0.9-1.1,1.6-1.5
		c0.7-0.4,1.6-0.6,2.7-0.6c1,0,1.8,0.2,2.4,0.5s1.1,0.8,1.5,1.3s0.6,1.3,0.7,2.1c0.1,0.8,0.2,1.7,0.2,2.7v0.7h-6.6V18.8z
		 M159.2,14.5c0-0.4-0.1-0.7-0.3-1c-0.1-0.3-0.3-0.5-0.5-0.6s-0.5-0.2-0.8-0.2c-0.3,0-0.6,0.1-0.8,0.2c-0.2,0.2-0.4,0.4-0.5,0.6
		c-0.1,0.2-0.2,0.5-0.3,0.8c-0.1,0.3-0.1,0.6-0.1,0.9v0.5h3.4C159.3,15.3,159.2,14.9,159.2,14.5z"/>
	<path class="st0" d="M177,9.6c-0.3-0.6-0.8-0.9-1.6-0.9c-0.4,0-0.8,0.1-1.1,0.3c-0.3,0.2-0.5,0.6-0.7,1.1c-0.2,0.5-0.3,1.2-0.3,2
		c-0.1,0.8-0.1,1.9-0.1,3.1c0,1.3,0,2.4,0.1,3.2c0.1,0.8,0.2,1.4,0.4,1.9c0.2,0.4,0.4,0.7,0.7,0.9c0.3,0.2,0.6,0.2,1,0.2
		c0.3,0,0.6-0.1,0.9-0.2s0.5-0.3,0.7-0.6c0.2-0.3,0.3-0.8,0.5-1.3s0.2-1.3,0.2-2.3h3.5c0,0.9-0.1,1.8-0.2,2.6s-0.4,1.6-0.8,2.2
		s-0.9,1.1-1.7,1.5c-0.7,0.4-1.6,0.5-2.8,0.5c-1.3,0-2.3-0.2-3.1-0.6c-0.8-0.4-1.4-1-1.8-1.8c-0.4-0.8-0.7-1.7-0.8-2.8
		c-0.1-1.1-0.2-2.3-0.2-3.6c0-1.3,0.1-2.5,0.2-3.6c0.1-1.1,0.4-2,0.8-2.8c0.4-0.8,1-1.4,1.8-1.8c0.8-0.4,1.8-0.7,3.1-0.7
		c1.2,0,2.2,0.2,2.9,0.6s1.2,0.9,1.6,1.5c0.4,0.6,0.6,1.3,0.7,2c0.1,0.7,0.1,1.4,0.1,2h-3.5C177.4,11.1,177.3,10.2,177,9.6z"/>
	<path class="st0" d="M185.7,18.8c0,0.4,0,0.8,0.1,1.1c0.1,0.4,0.1,0.7,0.3,1c0.1,0.3,0.3,0.5,0.5,0.7c0.2,0.2,0.5,0.3,0.8,0.3
		c0.6,0,1-0.2,1.2-0.6s0.4-1,0.5-1.8h3c-0.1,1.5-0.5,2.7-1.2,3.4c-0.7,0.8-1.9,1.2-3.5,1.2c-1.2,0-2.1-0.2-2.8-0.6s-1.2-0.9-1.5-1.6
		c-0.3-0.7-0.5-1.4-0.6-2.2s-0.1-1.6-0.1-2.5c0-0.9,0.1-1.7,0.2-2.5c0.1-0.8,0.4-1.5,0.7-2.1s0.9-1.1,1.6-1.5
		c0.7-0.4,1.6-0.6,2.7-0.6c1,0,1.8,0.2,2.4,0.5s1.1,0.8,1.5,1.3s0.6,1.3,0.7,2.1c0.1,0.8,0.2,1.7,0.2,2.7v0.7h-6.6V18.8z M189,14.5
		c0-0.4-0.1-0.7-0.3-1c-0.1-0.3-0.3-0.5-0.5-0.6s-0.5-0.2-0.8-0.2c-0.3,0-0.6,0.1-0.8,0.2c-0.2,0.2-0.4,0.4-0.5,0.6
		c-0.1,0.2-0.2,0.5-0.3,0.8c-0.1,0.3-0.1,0.6-0.1,0.9v0.5h3.4C189.1,15.3,189.1,14.9,189,14.5z"/>
	<path class="st0" d="M197.2,10.8v1.5h0c0.4-0.6,0.8-1.1,1.4-1.4c0.6-0.3,1.2-0.4,1.9-0.4c1.1,0,1.9,0.3,2.4,0.9
		c0.6,0.6,0.9,1.5,0.9,2.8v9.6h-3.3v-8.9c0-0.7-0.1-1.1-0.3-1.4s-0.6-0.4-1.1-0.4c-1.2,0-1.8,0.7-1.8,2.1v8.6h-3.3v-13H197.2z"/>
	<path class="st0" d="M210.2,7.1v3.7h1.9v2.3h-1.9v7c0,0.5,0.1,0.9,0.2,1.1c0.2,0.2,0.5,0.3,1,0.3c0.1,0,0.3,0,0.4,0
		c0.1,0,0.2,0,0.4,0v2.3c-0.4,0-0.7,0-1.1,0c-0.3,0-0.7,0-1.1,0c-0.6,0-1.2,0-1.6-0.1c-0.4-0.1-0.7-0.3-0.9-0.5
		c-0.2-0.3-0.4-0.6-0.4-1s-0.1-1-0.1-1.6v-7.4h-1.7v-2.3h1.7V7.1H210.2z"/>
	<path class="st0" d="M216.4,10.8v1.7h0c0.3-0.6,0.7-1.1,1.2-1.5s1.1-0.6,1.8-0.6c0.1,0,0.2,0,0.3,0c0.1,0,0.2,0,0.3,0v3.2
		c-0.2,0-0.3,0-0.5,0c-0.2,0-0.3,0-0.5,0c-0.3,0-0.6,0-0.9,0.1s-0.6,0.2-0.8,0.4c-0.2,0.2-0.4,0.4-0.6,0.7s-0.2,0.7-0.2,1.1v7.8
		h-3.3v-13H216.4z"/>
	<path class="st0" d="M221.2,14.5c0-0.8,0.1-1.4,0.4-1.9c0.2-0.5,0.6-0.9,1-1.2c0.4-0.3,0.9-0.5,1.4-0.7c0.6-0.1,1.1-0.2,1.8-0.2
		c1,0,1.8,0.1,2.4,0.3s1.1,0.5,1.4,0.8s0.6,0.8,0.7,1.3s0.2,1,0.2,1.6v6.8c0,0.6,0,1.1,0.1,1.4s0.2,0.7,0.3,1.1h-3.2
		c-0.1-0.2-0.2-0.4-0.3-0.7c-0.1-0.2-0.1-0.5-0.2-0.7h0c-0.4,0.7-0.8,1.1-1.3,1.3s-1.2,0.3-2,0.3c-0.6,0-1.1-0.1-1.5-0.3
		s-0.7-0.5-1-0.8c-0.2-0.4-0.4-0.8-0.5-1.2c-0.1-0.4-0.2-0.9-0.2-1.3c0-0.6,0.1-1.1,0.2-1.6s0.3-0.8,0.6-1.1c0.3-0.3,0.6-0.6,1-0.8
		c0.4-0.2,0.9-0.4,1.5-0.6l1.9-0.5c0.5-0.1,0.8-0.3,1-0.5c0.2-0.2,0.3-0.6,0.3-1c0-0.5-0.1-0.9-0.3-1.2c-0.2-0.3-0.6-0.4-1.2-0.4
		c-0.5,0-0.9,0.2-1.2,0.5c-0.3,0.3-0.4,0.7-0.4,1.2v0.4h-3V14.5z M226.6,17.7c-0.3,0.1-0.5,0.2-0.7,0.2c-0.7,0.1-1.2,0.4-1.4,0.7
		c-0.3,0.3-0.4,0.8-0.4,1.4c0,0.5,0.1,0.9,0.3,1.3c0.2,0.4,0.5,0.5,1,0.5c0.2,0,0.5,0,0.7-0.1c0.2-0.1,0.5-0.2,0.7-0.3
		c0.2-0.2,0.4-0.4,0.5-0.6c0.1-0.3,0.2-0.6,0.2-0.9v-2.6C227.1,17.4,226.8,17.6,226.6,17.7z"/>
	<path class="st0" d="M236.3,6.6v17.2H233V6.6H236.3z"/>
</g>
</svg>
