<?xml version="1.0" encoding="utf-8"?>
<!-- Generator: Adobe Illustrator 26.4.1, SVG Export Plug-In . SVG Version: 6.00 Build 0)  -->
<svg version="1.1" id="Layer_1" xmlns="http://www.w3.org/2000/svg" xmlns:xlink="http://www.w3.org/1999/xlink" x="0px" y="0px"
	 viewBox="0 0 169.8 31.3" style="enable-background:new 0 0 169.8 31.3;" xml:space="preserve">
<style type="text/css">
	.st0{fill:#211D1D;}
	.st1{font-family:'Optima-Bold';}
	.st2{font-size:24.0901px;}
</style>
<g>
	<g>
		<path class="st0" d="M13.7,6l7.2,19.4h-4.4L15,21H7.8l-1.5,4.3H2L9.3,6H13.7z M13.9,17.9l-2.4-7.1h-0.1l-2.5,7.1H13.9z"/>
		<path class="st0" d="M31,6c1.2,0,2.4,0.2,3.5,0.6s2,1,2.8,1.8s1.4,1.8,1.8,3c0.4,1.2,0.7,2.6,0.7,4.2c0,1.4-0.2,2.7-0.5,3.9
			c-0.4,1.2-0.9,2.2-1.6,3.1s-1.6,1.6-2.7,2c-1.1,0.5-2.4,0.7-3.9,0.7h-8.4V6H31z M30.7,21.8c0.6,0,1.2-0.1,1.8-0.3
			c0.6-0.2,1.1-0.5,1.5-1s0.8-1.1,1.1-1.8c0.3-0.7,0.4-1.6,0.4-2.7c0-1-0.1-1.9-0.3-2.6c-0.2-0.8-0.5-1.5-0.9-2
			c-0.4-0.6-1-1-1.7-1.3S31,9.7,30,9.7h-3v12.2h3.7V21.8z"/>
		<path class="st0" d="M48.7,6l4.5,13.3h0.1L57.6,6h6v19.4h-4V11.6h-0.1l-4.7,13.7h-3.3l-4.7-13.6h-0.1v13.6h-4V6H48.7z"/>
		<path class="st0" d="M71.6,6v19.4h-4.3V6H71.6z"/>
		<path class="st0" d="M79.6,6l8.1,13h0.1V6h4v19.4h-4.3l-8.1-13h-0.1v13h-4V6H79.6z"/>
	</g>
</g>
<path class="st0" d="M101.6,2.1v27.1h-2.9V2.1H101.6z"/>
<text transform="matrix(1 0 0 1 104.1595 24.7518)" class="st0 st1 st2">Menú</text>
</svg>
